<svg width="783" height="164" viewBox="0 0 783 164" fill="none" xmlns="http://www.w3.org/2000/svg">
<path d="M392.171 69.4982C392.171 69.4982 385.127 69.1817 381.284 71.0808C379.683 74.5623 380.324 91.337 381.284 92.603C382.245 93.869 383.846 93.869 387.048 94.1855H397.294C401.776 93.869 402.417 93.5525 403.377 92.603C404.338 91.6535 404.658 74.2458 403.377 71.0808C402.417 69.4982 392.171 69.4982 392.171 69.4982Z" fill="white"/>
<path d="M0.581026 53.6731C0.581026 53.6731 -0.379537 43.545 15.95 43.545C32.2796 43.545 32.2796 52.7236 32.2796 53.6731V143.56H180.847C180.847 143.56 195.881 143.31 204.541 139.762C208.625 138.089 210.624 136.913 213.186 135.014C215.747 133.115 219.219 128.557 219.91 125.519C220.6 122.481 220.23 39.747 220.23 39.747C219.437 35.3977 216.708 31.8345 214.146 29.9353C211.585 28.0362 208.625 26.5445 204.541 24.8714C194.935 21.7063 185.97 21.3898 180.847 21.0733C175.724 20.7569 18.1914 21.0732 15.95 21.0733C13.7087 21.0735 8.26553 21.0734 5.38384 19.8073C2.50215 18.5412 1.70168 16.3257 1.2214 15.3762C0.581024 13.7937 0.581024 9.67913 0.899926 8.46616C1.21883 7.2532 1.86178 5.56459 3.46271 4.29857C5.06365 3.03256 7.62515 2.08306 10.5068 1.76655C13.3885 1.45005 211.247 0.817054 219.589 1.13355C227.274 1.42507 236.88 1.45005 243.924 5.88109C250.968 10.3121 251.288 18.8578 251.288 18.8578C251.288 18.8578 251.608 119.189 251.288 124.253C250.968 129.317 250.541 131.272 248.727 135.331C247.017 139.156 245.5 141.108 242.643 144.193C239.518 147.567 237.308 149.089 233.358 151.472C230.159 153.402 228.192 154.213 224.712 155.587C220.819 157.124 218.52 157.697 214.466 158.752C207.984 160.44 203.42 160.997 196.412 161.854L195.896 161.917C190.042 162.633 178.285 163.183 178.285 163.183H95.997H8.9059C6.02421 163.183 5.06365 162.867 3.14253 161.6C1.54159 160.334 1.21364 159.334 0.893457 158.068C0.260837 153.055 0.581026 53.6731 0.581026 53.6731Z" fill="white"/>
<path d="M277.543 163.183C274.177 163.152 271.78 162.55 269.539 160.968C267.297 159.385 266.337 157.486 266.017 155.587C265.696 153.688 266.263 21.0733 266.337 19.4908C266.411 17.9083 267.297 9.75371 272.42 5.8812C277.543 2.0087 287.789 1.13366 289.711 1.13366C291.632 1.13366 392.171 2.08317 392.171 2.08317L492.71 1.13366C494.631 1.13366 505.517 1.6922 510.64 5.5647C515.763 9.43721 516.893 17.7968 516.967 19.3793L516.724 155.904C516.404 158.752 514.482 160.335 513.202 161.284C511.921 162.234 508.364 163.532 504.877 163.499C501.51 163.468 499.113 162.867 496.872 161.284C494.631 159.702 493.67 157.803 493.35 155.904C493.35 155.904 492.998 50.1915 492.389 44.178C492.389 44.178 491.429 37.2149 487.907 33.4168C484.451 29.6902 480.995 28.0965 476.329 25.945L476.06 25.8208C465.173 21.7062 453.967 21.7062 453.967 21.7062C453.967 21.7062 419.309 19.8184 392.171 19.8072C364.407 19.7958 331.655 21.0732 327.493 21.3897C323.33 21.7062 314.025 22.3367 306.36 25.8208C301.35 28.0982 297.969 29.6902 294.513 33.4168C290.991 37.2149 290.351 42.2789 290.031 46.077C289.711 49.875 289.39 153.055 289.07 155.904C288.75 158.752 287.149 160.018 285.868 160.968C284.588 161.917 281.031 163.215 277.543 163.183Z" fill="white"/>
<path d="M656.249 130.583C656.249 130.583 663.293 130.9 667.135 129.001C668.736 125.519 668.096 108.744 667.135 107.478C666.174 106.212 664.573 106.212 661.372 105.896H651.126C646.643 106.212 646.003 106.529 645.042 107.478C644.082 108.428 643.761 125.836 645.042 129.001C646.003 130.583 656.249 130.583 656.249 130.583Z" fill="white"/>
<path d="M770.876 0.816967C774.243 0.847986 776.639 1.4498 778.881 3.03231C781.122 4.61483 782.083 6.51385 782.403 8.41287C782.723 10.3119 782.157 142.927 782.083 144.509C782.008 146.092 781.122 154.246 775.999 158.119C770.876 161.991 760.63 162.866 758.709 162.866C756.788 162.866 656.249 161.917 656.249 161.917L555.71 162.866C553.789 162.866 542.902 162.308 537.779 158.435C532.656 154.563 531.527 146.203 531.452 144.621L531.696 8.09637C532.016 5.24784 533.937 3.66536 535.218 2.71585C536.498 1.76634 540.055 0.46833 543.543 0.500464C546.909 0.531483 549.306 1.13333 551.547 2.71585C553.789 4.29836 554.749 6.19735 555.069 8.09637C555.069 8.09637 555.422 113.808 556.03 119.822C556.03 119.822 556.991 126.785 560.513 130.583C563.969 134.31 567.424 135.903 572.09 138.055L572.36 138.179C583.246 142.294 594.453 142.294 594.453 142.294C594.453 142.294 629.11 144.182 656.249 144.193C684.012 144.204 716.764 142.927 720.927 142.61C725.089 142.294 734.394 141.663 742.059 138.179C747.069 135.902 750.45 134.31 753.906 130.583C757.428 126.785 758.068 121.721 758.389 117.923C758.709 114.125 759.029 10.9449 759.349 8.09637C759.669 5.24784 761.27 3.98182 762.551 3.03231C763.832 2.0828 767.388 0.784833 770.876 0.816967Z" fill="white"/>
<path d="M32.2796 53.6731C32.2796 52.7236 32.2796 43.545 15.95 43.545C-0.379537 43.545 0.581026 53.6731 0.581026 53.6731C0.581026 53.6731 0.260837 153.055 0.893457 158.068C1.21364 159.334 1.54159 160.334 3.14253 161.6C5.06365 162.866 6.02421 163.183 8.9059 163.183M32.2796 53.6731C32.2796 54.6225 32.2796 143.56 32.2796 143.56M32.2796 53.6731V143.56M32.2796 143.56H180.847C180.847 143.56 195.881 143.31 204.541 139.762C208.625 138.089 210.624 136.913 213.186 135.014C215.747 133.115 219.219 128.557 219.91 125.519C220.6 122.481 220.23 39.747 220.23 39.747C219.437 35.3977 216.708 31.8345 214.146 29.9353C211.585 28.0362 208.625 26.5445 204.541 24.8714C194.935 21.7063 185.97 21.3898 180.847 21.0733C175.724 20.7569 18.1914 21.0732 15.95 21.0733C13.7087 21.0735 8.26553 21.0734 5.38384 19.8073C2.50215 18.5412 1.70168 16.3257 1.2214 15.3762C0.581024 13.7937 0.581024 9.67913 0.899926 8.46616C1.21883 7.2532 1.86178 5.56459 3.46271 4.29857C5.06365 3.03256 7.62516 2.08306 10.5068 1.76655C13.3885 1.45005 211.247 0.817054 219.589 1.13355C227.274 1.42507 236.88 1.45005 243.924 5.88109C250.968 10.3121 251.288 18.8578 251.288 18.8578C251.288 18.8578 251.608 119.189 251.288 124.253C250.968 129.317 250.541 131.272 248.727 135.331C247.017 139.156 245.5 141.108 242.643 144.193C239.518 147.567 237.308 149.089 233.358 151.472C230.159 153.402 228.192 154.213 224.712 155.587C220.819 157.124 218.52 157.697 214.466 158.752C207.984 160.44 203.42 160.997 196.412 161.854M195.896 161.917C190.042 162.633 178.285 163.183 178.285 163.183M195.896 161.917L196.412 161.854M195.896 161.917C196.069 161.896 196.242 161.875 196.412 161.854M178.285 163.183C178.285 163.183 138.608 163.183 95.997 163.183M178.285 163.183H95.997M8.9059 163.183C10.3472 163.183 53.3589 163.183 95.997 163.183M8.9059 163.183H95.997M387.048 94.1855C383.846 93.869 382.245 93.869 381.284 92.603C380.324 91.337 379.683 74.5623 381.284 71.0808C385.127 69.1817 392.171 69.4982 392.171 69.4982C392.171 69.4982 402.417 69.4982 403.377 71.0808C404.658 74.2458 404.338 91.6535 403.377 92.603C402.417 93.5525 401.776 93.869 397.294 94.1855M387.048 94.1855C392.491 94.1855 391.851 94.1855 397.294 94.1855M387.048 94.1855H397.294M476.06 25.8208C465.173 21.7062 453.967 21.7062 453.967 21.7062C453.967 21.7062 419.309 19.8184 392.171 19.8072C364.407 19.7958 331.655 21.0732 327.493 21.3897C323.33 21.7062 314.025 22.3367 306.36 25.8208C301.35 28.0982 297.969 29.6902 294.513 33.4168C290.991 37.2149 290.351 42.2789 290.031 46.077C289.711 49.875 289.39 153.055 289.07 155.904C288.75 158.752 287.149 160.018 285.868 160.968C284.588 161.917 281.031 163.215 277.543 163.183C274.177 163.152 271.78 162.55 269.539 160.968C267.297 159.385 266.337 157.486 266.017 155.587C265.696 153.688 266.263 21.0733 266.337 19.4908C266.411 17.9083 267.297 9.75371 272.42 5.8812C277.543 2.0087 287.789 1.13366 289.711 1.13366C291.632 1.13366 392.171 2.08317 392.171 2.08317L492.71 1.13366C494.631 1.13366 505.517 1.6922 510.64 5.5647C515.763 9.43721 516.893 17.7968 516.967 19.3793L516.724 155.904C516.404 158.752 514.482 160.335 513.202 161.284C511.921 162.234 508.364 163.532 504.877 163.499C501.51 163.468 499.113 162.867 496.872 161.284C494.631 159.702 493.67 157.803 493.35 155.904C493.35 155.904 492.998 50.1915 492.389 44.178C492.389 44.178 491.429 37.2149 487.907 33.4168C484.451 29.6902 480.995 28.0965 476.329 25.945M476.06 25.8208L476.329 25.945M476.06 25.8208C476.15 25.8624 476.24 25.9038 476.329 25.945M770.876 0.816966C774.243 0.847986 776.639 1.4498 778.881 3.03231C781.122 4.61483 782.083 6.51385 782.403 8.41287C782.723 10.3119 782.157 142.927 782.083 144.509C782.008 146.092 781.122 154.246 775.999 158.119C770.876 161.991 760.63 162.866 758.709 162.866C756.788 162.866 656.249 161.917 656.249 161.917L555.71 162.866C553.789 162.866 542.902 162.308 537.779 158.435C532.656 154.563 531.527 146.203 531.452 144.621L531.696 8.09637C532.016 5.24784 533.937 3.66536 535.218 2.71585C536.498 1.76634 540.055 0.46833 543.543 0.500464C546.909 0.531483 549.306 1.13333 551.547 2.71585C553.789 4.29836 554.749 6.19735 555.069 8.09637C555.069 8.09637 555.422 113.808 556.03 119.822C556.03 119.822 556.991 126.785 560.513 130.583C563.968 134.31 567.424 135.903 572.09 138.055L572.36 138.179C583.246 142.294 594.453 142.294 594.453 142.294C594.453 142.294 629.11 144.182 656.249 144.193C684.012 144.204 716.764 142.927 720.927 142.61C725.089 142.294 734.394 141.663 742.059 138.179C747.069 135.902 750.45 134.31 753.906 130.583C757.428 126.785 758.068 121.721 758.389 117.923C758.709 114.125 759.029 10.9449 759.349 8.09637C759.669 5.24784 761.27 3.98182 762.551 3.03231C763.832 2.0828 767.388 0.784833 770.876 0.816966ZM656.249 130.583C656.249 130.583 663.293 130.9 667.135 129.001C668.736 125.519 668.096 108.744 667.135 107.478C666.174 106.212 664.574 106.212 661.372 105.896H651.126C646.643 106.212 646.003 106.529 645.042 107.478C644.082 108.428 643.761 125.836 645.042 129.001C646.003 130.583 656.249 130.583 656.249 130.583Z" stroke="white"/>
</svg>
