<svg width="57" height="70" viewBox="0 0 57 70" fill="none" xmlns="http://www.w3.org/2000/svg">
<path d="M31.3125 69.0938H0V0H33.5625C42.0312 0.125 48.0312 2.57812 51.5625 7.35938C53.6875 10.2969 54.75 13.8125 54.75 17.9062C54.75 22.125 53.6875 25.5156 51.5625 28.0781C50.375 29.5156 48.625 30.8281 46.3125 32.0156C49.8438 33.2969 52.5 35.3281 54.2812 38.1094C56.0938 40.8906 57 44.2656 57 48.2344C57 52.3281 55.9688 56 53.9062 59.25C52.5938 61.4062 50.9531 63.2188 48.9844 64.6875C46.7656 66.375 44.1406 67.5312 41.1094 68.1562C38.1094 68.7812 34.8438 69.0938 31.3125 69.0938ZM30.9844 38.6719H13.7812V57.0938H30.75C33.7812 57.0938 36.1406 56.6875 37.8281 55.875C40.8906 54.375 42.4219 51.5 42.4219 47.25C42.4219 43.6562 40.9375 41.1875 37.9688 39.8438C36.3125 39.0938 33.9844 38.7031 30.9844 38.6719ZM38.1562 25.5C40.0312 24.375 40.9688 22.3594 40.9688 19.4531C40.9688 16.2344 39.7188 14.1094 37.2188 13.0781C35.0625 12.3594 32.3125 12 28.9688 12H13.7812V27.2344H30.75C33.7812 27.2344 36.25 26.6562 38.1562 25.5Z" fill="black"/>
</svg>
